<mxfile host="drawio-plugin" modified="2022-01-20T15:17:00.575Z" agent="5.0 (Macintosh; Intel Mac OS X 10_13_6) AppleWebKit/537.36 (KHTML, like Gecko) Chrome/89.0.4389.114 Safari/537.36" etag="ULHILh9bsoJ0bpLQHobk" version="15.5.4" type="embed"><diagram id="8iirrna2o777dD7SSnwK" name="Page-1"><mxGraphModel dx="1127" dy="871" grid="1" gridSize="10" guides="1" tooltips="1" connect="1" arrows="1" fold="1" page="1" pageScale="1" pageWidth="827" pageHeight="1169" math="0" shadow="0"><root><mxCell id="0"/><mxCell id="1" parent="0"/><mxCell id="sHf9FfSuolxGIul4BD1T-1" value="&lt;b&gt;&lt;br&gt;&lt;br&gt;&lt;br&gt;&lt;font color=&quot;#ffffff&quot;&gt;&lt;br&gt;DoS User&lt;br&gt;&lt;br&gt;&lt;/font&gt;&lt;/b&gt;" style="shape=actor;whiteSpace=wrap;html=1;fillColor=#007FFF;" parent="1" vertex="1"><mxGeometry x="137.5" y="50" width="130" height="130" as="geometry"/></mxCell><mxCell id="sHf9FfSuolxGIul4BD1T-2" value="&lt;font style=&quot;font-size: 14px&quot;&gt;&lt;b&gt;DoS Search API&lt;/b&gt;&lt;br&gt;&lt;br&gt;Returns service details based on search criteria&lt;/font&gt;" style="rounded=1;whiteSpace=wrap;html=1;" parent="1" vertex="1"><mxGeometry x="125" y="310" width="155" height="140" as="geometry"/></mxCell><mxCell id="sHf9FfSuolxGIul4BD1T-3" value="&lt;font style=&quot;font-size: 14px&quot;&gt;&lt;b&gt;Road Distance API&lt;br&gt;&lt;/b&gt;&lt;br&gt;Fetches road distances from third party provider&lt;/font&gt;" style="rounded=1;whiteSpace=wrap;html=1;fillColor=#CCCCCC;" parent="1" vertex="1"><mxGeometry x="510" y="310" width="160" height="140" as="geometry"/></mxCell><mxCell id="sHf9FfSuolxGIul4BD1T-4" value="&lt;font style=&quot;font-size: 14px&quot;&gt;&lt;b&gt;Cloudwatch Logs&lt;br&gt;&lt;/b&gt;&lt;br&gt;Stores log for future analysis&lt;/font&gt;" style="rounded=1;whiteSpace=wrap;html=1;fillColor=#CCCCCC;" parent="1" vertex="1"><mxGeometry x="510" y="620" width="160" height="130" as="geometry"/></mxCell><mxCell id="sHf9FfSuolxGIul4BD1T-5" value="" style="endArrow=open;endFill=1;endSize=12;html=1;exitX=1.013;exitY=0.207;exitDx=0;exitDy=0;exitPerimeter=0;" parent="1" source="sHf9FfSuolxGIul4BD1T-2" edge="1"><mxGeometry width="160" relative="1" as="geometry"><mxPoint x="290" y="340" as="sourcePoint"/><mxPoint x="510" y="340" as="targetPoint"/><Array as="points"><mxPoint x="400" y="340"/></Array></mxGeometry></mxCell><mxCell id="sHf9FfSuolxGIul4BD1T-12" value="&lt;font style=&quot;font-size: 14px&quot;&gt;Sends eligible services to&lt;/font&gt;" style="edgeLabel;html=1;align=center;verticalAlign=middle;resizable=0;points=[];" parent="sHf9FfSuolxGIul4BD1T-5" vertex="1" connectable="0"><mxGeometry x="-0.1556" y="-1" relative="1" as="geometry"><mxPoint x="22" y="19" as="offset"/></mxGeometry></mxCell><mxCell id="sHf9FfSuolxGIul4BD1T-6" value="" style="endArrow=open;endFill=1;endSize=12;html=1;exitX=0.25;exitY=1;exitDx=0;exitDy=0;" parent="1" source="sHf9FfSuolxGIul4BD1T-1" edge="1"><mxGeometry width="160" relative="1" as="geometry"><mxPoint x="260" y="310" as="sourcePoint"/><mxPoint x="170" y="308" as="targetPoint"/></mxGeometry></mxCell><mxCell id="sHf9FfSuolxGIul4BD1T-9" value="&lt;font style=&quot;font-size: 14px&quot;&gt;Makes search &lt;br&gt;request to&lt;/font&gt;" style="edgeLabel;html=1;align=center;verticalAlign=middle;resizable=0;points=[];" parent="sHf9FfSuolxGIul4BD1T-6" vertex="1" connectable="0"><mxGeometry x="-0.2" relative="1" as="geometry"><mxPoint x="-70" y="19" as="offset"/></mxGeometry></mxCell><mxCell id="sHf9FfSuolxGIul4BD1T-8" value="" style="endArrow=open;endFill=1;endSize=12;html=1;exitX=0.5;exitY=1;exitDx=0;exitDy=0;entryX=0.5;entryY=0;entryDx=0;entryDy=0;" parent="1" source="sHf9FfSuolxGIul4BD1T-3" target="sHf9FfSuolxGIul4BD1T-4" edge="1"><mxGeometry width="160" relative="1" as="geometry"><mxPoint x="569.5" y="450" as="sourcePoint"/><mxPoint x="569.5" y="520" as="targetPoint"/></mxGeometry></mxCell><mxCell id="sHf9FfSuolxGIul4BD1T-10" value="&lt;font style=&quot;font-size: 14px&quot;&gt;Stores requests &lt;br&gt;and responses to&lt;/font&gt;" style="edgeLabel;html=1;align=center;verticalAlign=middle;resizable=0;points=[];" parent="sHf9FfSuolxGIul4BD1T-8" vertex="1" connectable="0"><mxGeometry x="-0.0907" y="2" relative="1" as="geometry"><mxPoint as="offset"/></mxGeometry></mxCell><mxCell id="sHf9FfSuolxGIul4BD1T-13" value="" style="endArrow=open;endFill=1;endSize=12;html=1;exitX=0.697;exitY=0.007;exitDx=0;exitDy=0;exitPerimeter=0;" parent="1" source="sHf9FfSuolxGIul4BD1T-2" edge="1"><mxGeometry width="160" relative="1" as="geometry"><mxPoint x="180" y="190" as="sourcePoint"/><mxPoint x="233" y="180" as="targetPoint"/></mxGeometry></mxCell><mxCell id="sHf9FfSuolxGIul4BD1T-14" value="&lt;font style=&quot;font-size: 14px&quot;&gt;Receives&lt;br&gt;search results&amp;nbsp;&lt;br&gt;&lt;/font&gt;" style="edgeLabel;html=1;align=center;verticalAlign=middle;resizable=0;points=[];" parent="sHf9FfSuolxGIul4BD1T-13" vertex="1" connectable="0"><mxGeometry x="-0.2" relative="1" as="geometry"><mxPoint x="67" y="-9" as="offset"/></mxGeometry></mxCell><mxCell id="5" value="" style="endArrow=open;endFill=1;endSize=12;html=1;exitX=1;exitY=0.5;exitDx=0;exitDy=0;entryX=0;entryY=0.5;entryDx=0;entryDy=0;" parent="1" edge="1"><mxGeometry width="160" relative="1" as="geometry"><mxPoint x="510" y="400" as="sourcePoint"/><mxPoint x="280" y="400" as="targetPoint"/></mxGeometry></mxCell><mxCell id="6" value="&lt;font style=&quot;font-size: 14px&quot;&gt;Return response&amp;nbsp;back to API&lt;/font&gt;" style="edgeLabel;html=1;align=center;verticalAlign=middle;resizable=0;points=[];" parent="5" vertex="1" connectable="0"><mxGeometry x="-0.1556" y="-1" relative="1" as="geometry"><mxPoint x="-13" y="19" as="offset"/></mxGeometry></mxCell></root></mxGraphModel></diagram></mxfile>